{"title":"Kid Ink feat. Chris Brown - Show Me (Explicit) 720p x264 AAC E-S","uid":9178296,"size":72888649,"categoryP":"video","categoryS":"music_videos","magnet":"?xt=urn:btih:9b954f0241e6673f8f94f6a46d0b9021a3123fd5&amp;dn=Kid+Ink+feat.+Chris+Brown+-+Show+Me+%28Explicit%29+720p+x264+AAC+E-S&amp;tr=udp%3A%2F%2Ftracker.openbittorrent.com%3A80&amp;tr=udp%3A%2F%2Fopen.demonii.com%3A1337&amp;tr=udp%3A%2F%2Ftracker.coppersurfer.tk%3A6969&amp;tr=udp%3A%2F%2Fexodus.desync.com%3A6969","seeders":6,"leechers":0,"uploader":"canc232","files":1,"time":1384190755,"description":"Kid Ink feat. Chris Brown - Show Me (Explicit) 720p x264 AAC E-Subs [GWC]\n\nCOVER : &lt;a href=&quot;\nhttp://s20.postimg.org/jd7b3foxp/KINK.jpg&quot; rel=&quot;nofollow&quot; target=&quot;_NEW&quot;&gt;\nhttp://s20.postimg.org/jd7b3foxp/KINK.jpg&lt;/a&gt;\n\nTHUMBNAIL IMAGE : &lt;a href=&quot;\nhttp://img856.imageshack.us/img856/4213/mfvy.jpg&quot; rel=&quot;nofollow&quot; target=&quot;_NEW&quot;&gt;\nhttp://img856.imageshack.us/img856/4213/mfvy.jpg&lt;/a&gt;\n\n\n\nMEDIA INFO :\n\nGeneral \nFormat : MPEG-4 \nFormat profile : Base Media \nFile size : 69.5 MiB \nDuration : 4mn 12s \nOverall bit rate mode : Variable \nOverall bit rate : 2 313 Kbps \n\nVideo \nFormat : AVC \nFormat profile : &lt;a class=&quot;__cf_email__&quot; href=&quot;/cdn-cgi/l/email-protection&quot; data-cfemail=&quot;044c6d636c4448372a35&quot;&gt;[email&amp;#160;protected]&lt;/a&gt;&lt;script cf-hash='f9e31' type=&quot;text/javascript&quot;&gt;\n/* &lt;![CDATA[ */!function(){try{var t=&quot;currentScript&quot;in document?document.currentScript:function(){for(var t=document.getElementsByTagName(&quot;script&quot;),e=t.length;e--;)if(t[e].getAttribute(&quot;cf-hash&quot;))return t[e]}();if(t&amp;&amp;t.previousSibling){var e,r,n,i,c=t.previousSibling,a=c.getAttribute(&quot;data-cfemail&quot;);if(a){for(e=&quot;&quot;,r=parseInt(a.substr(0,2),16),n=2;a.length-n;n+=2)i=parseInt(a.substr(n,2),16)^r,e+=String.fromCharCode(i);e=document.createTextNode(e),c.parentNode.replaceChild(e,c)}}}catch(u){}}();/* ]]&gt; */&lt;/script&gt; \nFormat settings, CABAC : Yes \nDuration : 4mn 11s \nSource duration : 4mn 11s \nBit rate : 2 228 Kbps \nWidth : 1 280 pixels \nHeight : 720 pixels \nDisplay aspect ratio : 16:9 \nFrame rate : 23.976 fps \nStream size : 66.9 MiB (96%)  \nTitle : Kid Ink feat. Chris Brown - Show Me (Explicit) 720p x264 AAC E-Subs [GWC] \n\nAudio \nFormat : AAC \nFormat profile : LC \nDuration : 4mn 11s \nBit rate mode : Variable \nChannel(s) : 2 channels \nSampling rate : 48.0 KHz \nStream size : 2.56 MiB\nLanguage : English \n\nText \nFormat : Timed Text \nDuration : 4mn 12s \nBit rate mode : Variable \nTitle : English Subtitle by [GWC] \nLanguage : English \n","torrent":{"xt":"urn:btih:9b954f0241e6673f8f94f6a46d0b9021a3123fd5","amp;dn":"Kid+Ink+feat.+Chris+Brown+-+Show+Me+%28Explicit%29+720p+x264+AAC+E-S","amp;tr":["udp%3A%2F%2Ftracker.openbittorrent.com%3A80","udp%3A%2F%2Fopen.demonii.com%3A1337","udp%3A%2F%2Ftracker.coppersurfer.tk%3A6969","udp%3A%2F%2Fexodus.desync.com%3A6969"],"infoHash":"9b954f0241e6673f8f94f6a46d0b9021a3123fd5","infoHashBuffer":{"type":"Buffer","data":[155,149,79,2,65,230,103,63,143,148,246,164,109,11,144,33,163,18,63,213]},"announce":[],"urlList":[]}}